<svg xmlns="http://www.w3.org/2000/svg" xmlns:xlink="http://www.w3.org/1999/xlink" width="532" zoomAndPan="magnify" viewBox="0 0 398.88 377.999986" height="504" preserveAspectRatio="xMidYMid meet" version="1.0"><path fill="#ffffff" d="M 110.964844 22.25 C 107.292969 23.824219 105.71875 25.398438 103.769531 29.671875 C 102.195312 32.972656 101.96875 34.546875 101.96875 42.191406 L 101.96875 51.039062 L 88.25 51.039062 C 72.578125 51.039062 66.429688 52.164062 58.257812 56.4375 C 52.109375 59.664062 45.285156 66.636719 41.835938 73.234375 C 36.363281 83.582031 36.664062 76.082031 36.890625 198.894531 L 37.113281 309.335938 L 39.0625 314.734375 C 44.386719 329.207031 55.109375 339.027344 69.578125 342.777344 C 75.050781 344.128906 79.027344 344.203125 198.988281 344.203125 C 336.125 344.203125 328.25 344.425781 338.824219 339.253906 C 349.46875 334.003906 357.867188 323.285156 361.015625 310.835938 C 362.742188 304.164062 362.664062 90.628906 361.015625 83.355469 C 359.21875 75.78125 355.617188 69.261719 350.144531 63.785156 C 339.871094 53.441406 332.375 51.039062 311.007812 51.039062 L 296.910156 51.039062 L 296.910156 42.941406 C 296.910156 38.519531 296.535156 33.644531 296.085938 31.996094 C 295.035156 28.324219 290.085938 22.847656 286.640625 21.722656 C 282.441406 20.375 274.34375 21.125 271.269531 23.222656 C 265.796875 26.972656 263.921875 32.070312 263.921875 43.316406 L 263.921875 51.039062 L 135.109375 51.039062 L 134.882812 41.445312 C 134.585938 32.222656 134.507812 31.621094 132.335938 28.171875 C 129.261719 23.148438 125.0625 21.050781 118.539062 21.050781 C 115.839844 21.125 112.390625 21.648438 110.964844 22.25 Z M 101.96875 75.484375 C 101.96875 83.132812 103.167969 86.730469 106.917969 90.554688 C 115.613281 99.25 130.910156 95.203125 134.210938 83.355469 C 134.585938 81.855469 134.960938 78.183594 134.960938 75.183594 L 134.960938 69.785156 L 263.695312 69.785156 L 264.070312 76.683594 C 264.371094 81.78125 264.894531 84.480469 266.019531 86.804688 C 271.792969 98.050781 288.964844 98.050781 294.8125 86.804688 C 296.011719 84.480469 296.535156 81.929688 296.761719 76.683594 L 297.0625 69.785156 L 311.832031 69.785156 C 325.703125 69.785156 326.75 69.859375 330.351562 71.585938 C 335.300781 73.910156 339.347656 78.03125 341.820312 83.207031 C 343.621094 87.105469 343.773438 88.304688 343.996094 100.300781 L 344.296875 113.273438 L 54.734375 113.273438 L 54.734375 102.101562 C 54.734375 87.105469 56.007812 82.605469 62.082031 76.53125 C 68.230469 70.382812 70.105469 69.933594 87.574219 69.859375 L 101.96875 69.785156 Z M 343.996094 219.140625 L 343.773438 307.089844 L 341.746094 311.363281 C 339.121094 316.984375 333.949219 321.933594 328.699219 323.882812 C 324.578125 325.457031 324.351562 325.457031 198.464844 325.308594 L 72.351562 325.082031 L 68.679688 323.285156 C 63.878906 320.960938 59.832031 316.6875 57.207031 311.363281 L 55.109375 307.089844 L 54.882812 219.140625 L 54.734375 131.265625 L 344.144531 131.265625 Z M 343.996094 219.140625 " fill-opacity="1" fill-rule="nonzero"/><path fill="#ffffff" d="M 223.808594 151.433594 C 207.011719 155.632812 193.21875 169.65625 189.242188 186.523438 C 187.59375 193.496094 188.117188 206.394531 190.292969 212.617188 L 191.867188 217.117188 L 160.453125 248.605469 C 128.0625 281.070312 126.863281 282.421875 125.585938 289.542969 C 124.835938 293.59375 126.335938 298.015625 129.335938 300.640625 C 132.636719 303.488281 137.058594 304.6875 142.980469 304.3125 C 146.804688 304.089844 148.304688 303.566406 151.15625 301.539062 L 154.679688 299.066406 L 160.828125 305.214844 C 165.699219 310.085938 167.425781 311.289062 169.222656 311.363281 C 173.347656 311.511719 180.46875 304.988281 181.21875 300.414062 C 181.671875 297.640625 181.519531 297.417969 175.148438 291.191406 L 168.625 284.746094 L 172.148438 281.070312 C 174.171875 279.121094 175.972656 277.472656 176.195312 277.472656 C 176.496094 277.472656 179.046875 279.871094 181.894531 282.796875 C 187.820312 288.792969 190.367188 290.445312 192.992188 289.769531 C 193.964844 289.542969 197.191406 286.84375 200.113281 283.84375 C 207.539062 276.199219 207.460938 275.597656 198.617188 266.601562 L 191.792969 259.628906 L 195.089844 256.703125 C 196.816406 255.054688 201.6875 250.707031 205.738281 246.957031 L 213.234375 240.207031 L 217.808594 242.308594 C 222.832031 244.558594 232.128906 246.730469 236.929688 246.730469 C 238.578125 246.730469 242.476562 246.207031 245.550781 245.605469 C 267.445312 241.035156 283.265625 222.738281 284.6875 200.246094 C 286.039062 177.753906 270.144531 156.308594 248.175781 151.210938 C 241.726562 149.636719 230.40625 149.785156 223.808594 151.433594 Z M 251.324219 174.003906 C 259.871094 176.402344 264.144531 186.375 259.945312 194.324219 C 253.050781 207.292969 233.179688 202.496094 233.179688 187.875 C 233.179688 181.578125 236.777344 176.476562 242.628906 174.378906 C 246.226562 173.105469 247.726562 173.027344 251.324219 174.003906 Z M 251.324219 174.003906 " fill-opacity="1" fill-rule="nonzero"/></svg>