<svg xmlns="http://www.w3.org/2000/svg" xmlns:xlink="http://www.w3.org/1999/xlink" width="1080" zoomAndPan="magnify" viewBox="0 0 810 809.999993" height="1080" preserveAspectRatio="xMidYMid meet" version="1.0"><defs><g/></defs><path fill="#000000" d="M 106.34375 269.558594 C 103.359375 270.835938 102.082031 272.113281 100.496094 275.582031 C 99.21875 278.261719 99.035156 279.539062 99.035156 285.746094 L 99.035156 292.929688 L 87.890625 292.929688 C 75.164062 292.929688 70.171875 293.839844 63.535156 297.3125 C 58.539062 299.929688 53 305.589844 50.199219 310.945312 C 45.753906 319.34375 45.996094 313.257812 46.179688 412.949219 L 46.359375 502.601562 L 47.945312 506.984375 C 52.269531 518.730469 60.976562 526.703125 72.730469 529.746094 C 77.175781 530.84375 80.402344 530.902344 177.835938 530.902344 C 289.210938 530.902344 282.820312 531.085938 291.40625 526.886719 C 300.050781 522.625 306.871094 513.921875 309.429688 503.820312 C 310.832031 498.402344 310.769531 325.0625 309.429688 319.160156 C 307.96875 313.011719 305.046875 307.71875 300.601562 303.277344 C 292.257812 294.875 286.167969 292.929688 268.8125 292.929688 L 257.363281 292.929688 L 257.363281 286.355469 C 257.363281 282.765625 257.058594 278.808594 256.695312 277.46875 C 255.84375 274.488281 251.824219 270.042969 249.023438 269.132812 C 245.613281 268.035156 239.035156 268.644531 236.539062 270.347656 C 232.09375 273.390625 230.570312 277.53125 230.570312 286.660156 L 230.570312 292.929688 L 125.953125 292.929688 L 125.769531 285.136719 C 125.523438 277.652344 125.464844 277.164062 123.699219 274.367188 C 121.203125 270.289062 117.792969 268.582031 112.492188 268.582031 C 110.300781 268.644531 107.5 269.070312 106.34375 269.558594 Z M 99.035156 312.769531 C 99.035156 318.976562 100.011719 321.898438 103.054688 325.003906 C 110.117188 332.0625 122.542969 328.777344 125.222656 319.160156 C 125.523438 317.945312 125.828125 314.960938 125.828125 312.527344 L 125.828125 308.144531 L 230.386719 308.144531 L 230.691406 313.742188 C 230.9375 317.882812 231.363281 320.074219 232.273438 321.960938 C 236.964844 331.089844 250.910156 331.089844 255.660156 321.960938 C 256.632812 320.074219 257.058594 318.003906 257.242188 313.742188 L 257.484375 308.144531 L 269.484375 308.144531 C 280.75 308.144531 281.601562 308.207031 284.523438 309.605469 C 288.542969 311.492188 291.832031 314.839844 293.839844 319.039062 C 295.300781 322.203125 295.425781 323.175781 295.605469 332.914062 L 295.851562 343.445312 L 60.671875 343.445312 L 60.671875 334.375 C 60.671875 322.203125 61.707031 318.550781 66.640625 313.621094 C 71.632812 308.632812 73.15625 308.265625 87.34375 308.207031 L 99.035156 308.144531 Z M 295.605469 429.382812 L 295.425781 500.777344 L 293.78125 504.246094 C 291.648438 508.808594 287.445312 512.828125 283.183594 514.410156 C 279.835938 515.6875 279.652344 515.6875 177.410156 515.566406 L 74.980469 515.382812 L 71.996094 513.921875 C 68.101562 512.035156 64.8125 508.566406 62.679688 504.246094 L 60.976562 500.777344 L 60.792969 429.382812 L 60.671875 358.050781 L 295.730469 358.050781 Z M 295.605469 429.382812 " fill-opacity="1" fill-rule="nonzero"/><path fill="#000000" d="M 197.992188 374.425781 C 184.351562 377.832031 173.144531 389.214844 169.917969 402.910156 C 168.578125 408.570312 169.003906 419.035156 170.769531 424.089844 L 172.050781 427.742188 L 146.535156 453.304688 C 120.226562 479.65625 119.253906 480.753906 118.21875 486.535156 C 117.609375 489.820312 118.828125 493.410156 121.261719 495.542969 C 123.941406 497.855469 127.535156 498.828125 132.34375 498.523438 C 135.453125 498.339844 136.667969 497.914062 138.984375 496.273438 L 141.84375 494.265625 L 146.839844 499.253906 C 150.796875 503.210938 152.199219 504.183594 153.660156 504.246094 C 157.007812 504.367188 162.792969 499.070312 163.402344 495.359375 C 163.769531 493.105469 163.644531 492.925781 158.46875 487.875 L 153.171875 482.640625 L 156.035156 479.65625 C 157.679688 478.074219 159.140625 476.734375 159.324219 476.734375 C 159.566406 476.734375 161.636719 478.683594 163.949219 481.054688 C 168.761719 485.925781 170.832031 487.265625 172.964844 486.714844 C 173.753906 486.535156 176.375 484.34375 178.75 481.910156 C 184.777344 475.699219 184.714844 475.214844 177.53125 467.910156 L 171.988281 462.25 L 174.667969 459.875 C 176.070312 458.539062 180.027344 455.007812 183.316406 451.964844 L 189.40625 446.484375 L 193.121094 448.191406 C 197.199219 450.015625 204.75 451.78125 208.648438 451.78125 C 209.988281 451.78125 213.152344 451.355469 215.652344 450.867188 C 233.433594 447.15625 246.28125 432.304688 247.4375 414.046875 C 248.535156 395.789062 235.625 378.378906 217.78125 374.242188 C 212.546875 372.964844 203.351562 373.085938 197.992188 374.425781 Z M 220.339844 392.746094 C 227.28125 394.691406 230.753906 402.785156 227.34375 409.238281 C 221.742188 419.765625 205.601562 415.871094 205.601562 404.003906 C 205.601562 398.890625 208.527344 394.753906 213.277344 393.046875 C 216.199219 392.015625 217.417969 391.953125 220.339844 392.746094 Z M 220.339844 392.746094 " fill-opacity="1" fill-rule="nonzero"/><g fill="#000000" fill-opacity="1"><g transform="translate(335.760924, 434.624998)"><g><path d="M 30.578125 0 L 17.171875 -43.6875 L 16.828125 -43.6875 C 17.316406 -34.800781 17.5625 -28.875 17.5625 -25.90625 L 17.5625 0 L 7.015625 0 L 7.015625 -55.6875 L 23.078125 -55.6875 L 36.265625 -13.109375 L 36.484375 -13.109375 L 50.46875 -55.6875 L 66.53125 -55.6875 L 66.53125 0 L 55.53125 0 L 55.53125 -26.359375 C 55.53125 -27.597656 55.546875 -29.03125 55.578125 -30.65625 C 55.617188 -32.28125 55.789062 -36.597656 56.09375 -43.609375 L 55.765625 -43.609375 L 41.40625 0 Z M 30.578125 0 "/></g></g><g transform="translate(409.304865, 434.624998)"><g><path d="M 0 -42.578125 L 12.71875 -42.578125 L 20.75 -18.625 C 21.4375 -16.539062 21.910156 -14.078125 22.171875 -11.234375 L 22.390625 -11.234375 C 22.671875 -13.847656 23.21875 -16.3125 24.03125 -18.625 L 31.921875 -42.578125 L 44.375 -42.578125 L 26.359375 5.453125 C 24.703125 9.890625 22.34375 13.210938 19.28125 15.421875 C 16.226562 17.628906 12.65625 18.734375 8.5625 18.734375 C 6.5625 18.734375 4.597656 18.519531 2.671875 18.09375 L 2.671875 8.875 C 4.066406 9.207031 5.585938 9.375 7.234375 9.375 C 9.296875 9.375 11.09375 8.742188 12.625 7.484375 C 14.164062 6.222656 15.363281 4.328125 16.21875 1.796875 L 16.90625 -0.3125 Z M 0 -42.578125 "/></g></g><g transform="translate(453.674981, 434.624998)"><g/></g><g transform="translate(473.936699, 434.624998)"><g><path d="M 18.8125 -30.96875 L 22.625 -30.96875 C 26.351562 -30.96875 29.101562 -31.585938 30.875 -32.828125 C 32.65625 -34.078125 33.546875 -36.035156 33.546875 -38.703125 C 33.546875 -41.335938 32.640625 -43.210938 30.828125 -44.328125 C 29.015625 -45.453125 26.203125 -46.015625 22.390625 -46.015625 L 18.8125 -46.015625 Z M 18.8125 -21.359375 L 18.8125 0 L 7.015625 0 L 7.015625 -55.6875 L 23.234375 -55.6875 C 30.796875 -55.6875 36.390625 -54.304688 40.015625 -51.546875 C 43.648438 -48.796875 45.46875 -44.613281 45.46875 -39 C 45.46875 -35.726562 44.566406 -32.816406 42.765625 -30.265625 C 40.960938 -27.710938 38.410156 -25.710938 35.109375 -24.265625 C 43.492188 -11.742188 48.957031 -3.65625 51.5 0 L 38.390625 0 L 25.09375 -21.359375 Z M 18.8125 -21.359375 "/></g></g><g transform="translate(525.428884, 434.624998)"><g><path d="M 23.734375 -35.109375 C 21.265625 -35.109375 19.332031 -34.328125 17.9375 -32.765625 C 16.539062 -31.210938 15.742188 -29 15.546875 -26.125 L 31.84375 -26.125 C 31.789062 -29 31.039062 -31.210938 29.59375 -32.765625 C 28.144531 -34.328125 26.191406 -35.109375 23.734375 -35.109375 Z M 25.359375 0.765625 C 18.503906 0.765625 13.144531 -1.125 9.28125 -4.90625 C 5.425781 -8.695312 3.5 -14.054688 3.5 -20.984375 C 3.5 -28.117188 5.28125 -33.632812 8.84375 -37.53125 C 12.414062 -41.425781 17.351562 -43.375 23.65625 -43.375 C 29.664062 -43.375 34.347656 -41.660156 37.703125 -38.234375 C 41.054688 -34.804688 42.734375 -30.070312 42.734375 -24.03125 L 42.734375 -18.390625 L 15.265625 -18.390625 C 15.398438 -15.085938 16.378906 -12.507812 18.203125 -10.65625 C 20.035156 -8.8125 22.601562 -7.890625 25.90625 -7.890625 C 28.46875 -7.890625 30.890625 -8.15625 33.171875 -8.6875 C 35.453125 -9.21875 37.835938 -10.066406 40.328125 -11.234375 L 40.328125 -2.25 C 38.296875 -1.226562 36.125 -0.472656 33.8125 0.015625 C 31.507812 0.515625 28.691406 0.765625 25.359375 0.765625 Z M 25.359375 0.765625 "/></g></g><g transform="translate(571.512866, 434.624998)"><g><path d="M 35.796875 -12.640625 C 35.796875 -8.273438 34.28125 -4.945312 31.25 -2.65625 C 28.21875 -0.375 23.679688 0.765625 17.640625 0.765625 C 14.535156 0.765625 11.890625 0.550781 9.703125 0.125 C 7.523438 -0.289062 5.484375 -0.90625 3.578125 -1.71875 L 3.578125 -11.3125 C 5.734375 -10.289062 8.164062 -9.4375 10.875 -8.75 C 13.582031 -8.070312 15.960938 -7.734375 18.015625 -7.734375 C 22.234375 -7.734375 24.34375 -8.953125 24.34375 -11.390625 C 24.34375 -12.304688 24.0625 -13.046875 23.5 -13.609375 C 22.9375 -14.179688 21.96875 -14.828125 20.59375 -15.546875 C 19.226562 -16.273438 17.40625 -17.125 15.125 -18.09375 C 11.84375 -19.457031 9.429688 -20.722656 7.890625 -21.890625 C 6.359375 -23.066406 5.242188 -24.410156 4.546875 -25.921875 C 3.847656 -27.429688 3.5 -29.289062 3.5 -31.5 C 3.5 -35.28125 4.960938 -38.203125 7.890625 -40.265625 C 10.828125 -42.335938 14.988281 -43.375 20.375 -43.375 C 25.5 -43.375 30.488281 -42.257812 35.34375 -40.03125 L 31.84375 -31.65625 C 29.707031 -32.5625 27.710938 -33.304688 25.859375 -33.890625 C 24.003906 -34.472656 22.113281 -34.765625 20.1875 -34.765625 C 16.757812 -34.765625 15.046875 -33.84375 15.046875 -32 C 15.046875 -30.957031 15.597656 -30.050781 16.703125 -29.28125 C 17.804688 -28.519531 20.222656 -27.394531 23.953125 -25.90625 C 27.285156 -24.550781 29.722656 -23.289062 31.265625 -22.125 C 32.816406 -20.957031 33.957031 -19.613281 34.6875 -18.09375 C 35.425781 -16.570312 35.796875 -14.753906 35.796875 -12.640625 Z M 35.796875 -12.640625 "/></g></g><g transform="translate(610.284348, 434.624998)"><g><path d="M 23.734375 -35.109375 C 21.265625 -35.109375 19.332031 -34.328125 17.9375 -32.765625 C 16.539062 -31.210938 15.742188 -29 15.546875 -26.125 L 31.84375 -26.125 C 31.789062 -29 31.039062 -31.210938 29.59375 -32.765625 C 28.144531 -34.328125 26.191406 -35.109375 23.734375 -35.109375 Z M 25.359375 0.765625 C 18.503906 0.765625 13.144531 -1.125 9.28125 -4.90625 C 5.425781 -8.695312 3.5 -14.054688 3.5 -20.984375 C 3.5 -28.117188 5.28125 -33.632812 8.84375 -37.53125 C 12.414062 -41.425781 17.351562 -43.375 23.65625 -43.375 C 29.664062 -43.375 34.347656 -41.660156 37.703125 -38.234375 C 41.054688 -34.804688 42.734375 -30.070312 42.734375 -24.03125 L 42.734375 -18.390625 L 15.265625 -18.390625 C 15.398438 -15.085938 16.378906 -12.507812 18.203125 -10.65625 C 20.035156 -8.8125 22.601562 -7.890625 25.90625 -7.890625 C 28.46875 -7.890625 30.890625 -8.15625 33.171875 -8.6875 C 35.453125 -9.21875 37.835938 -10.066406 40.328125 -11.234375 L 40.328125 -2.25 C 38.296875 -1.226562 36.125 -0.472656 33.8125 0.015625 C 31.507812 0.515625 28.691406 0.765625 25.359375 0.765625 Z M 25.359375 0.765625 "/></g></g><g transform="translate(656.36833, 434.624998)"><g><path d="M 29.859375 -43.375 C 31.429688 -43.375 32.738281 -43.257812 33.78125 -43.03125 L 32.90625 -32.140625 C 31.96875 -32.398438 30.828125 -32.53125 29.484375 -32.53125 C 25.773438 -32.53125 22.882812 -31.578125 20.8125 -29.671875 C 18.738281 -27.765625 17.703125 -25.097656 17.703125 -21.671875 L 17.703125 0 L 6.09375 0 L 6.09375 -42.578125 L 14.890625 -42.578125 L 16.609375 -35.421875 L 17.171875 -35.421875 C 18.492188 -37.804688 20.28125 -39.726562 22.53125 -41.1875 C 24.78125 -42.644531 27.222656 -43.375 29.859375 -43.375 Z M 29.859375 -43.375 "/></g></g><g transform="translate(691.78825, 434.624998)"><g><path d="M 16.21875 0 L 0 -42.578125 L 12.15625 -42.578125 L 20.375 -18.3125 C 21.289062 -15.25 21.863281 -12.34375 22.09375 -9.59375 L 22.3125 -9.59375 C 22.445312 -12.03125 23.019531 -14.9375 24.03125 -18.3125 L 32.21875 -42.578125 L 44.375 -42.578125 L 28.140625 0 Z M 16.21875 0 "/></g></g><g transform="translate(736.158365, 434.624998)"><g><path d="M 23.734375 -35.109375 C 21.265625 -35.109375 19.332031 -34.328125 17.9375 -32.765625 C 16.539062 -31.210938 15.742188 -29 15.546875 -26.125 L 31.84375 -26.125 C 31.789062 -29 31.039062 -31.210938 29.59375 -32.765625 C 28.144531 -34.328125 26.191406 -35.109375 23.734375 -35.109375 Z M 25.359375 0.765625 C 18.503906 0.765625 13.144531 -1.125 9.28125 -4.90625 C 5.425781 -8.695312 3.5 -14.054688 3.5 -20.984375 C 3.5 -28.117188 5.28125 -33.632812 8.84375 -37.53125 C 12.414062 -41.425781 17.351562 -43.375 23.65625 -43.375 C 29.664062 -43.375 34.347656 -41.660156 37.703125 -38.234375 C 41.054688 -34.804688 42.734375 -30.070312 42.734375 -24.03125 L 42.734375 -18.390625 L 15.265625 -18.390625 C 15.398438 -15.085938 16.378906 -12.507812 18.203125 -10.65625 C 20.035156 -8.8125 22.601562 -7.890625 25.90625 -7.890625 C 28.46875 -7.890625 30.890625 -8.15625 33.171875 -8.6875 C 35.453125 -9.21875 37.835938 -10.066406 40.328125 -11.234375 L 40.328125 -2.25 C 38.296875 -1.226562 36.125 -0.472656 33.8125 0.015625 C 31.507812 0.515625 28.691406 0.765625 25.359375 0.765625 Z M 25.359375 0.765625 "/></g></g></g></svg>