<?xml version="1.0" standalone="no"?>
<!DOCTYPE svg PUBLIC "-//W3C//DTD SVG 20010904//EN"
 "http://www.w3.org/TR/2001/REC-SVG-20010904/DTD/svg10.dtd">
<svg version="1.0" xmlns="http://www.w3.org/2000/svg"
 width="532.000000pt" height="504.000000pt" viewBox="0 0 532.000000 504.000000"
 preserveAspectRatio="xMidYMid meet">

<g transform="translate(0.000000,504.000000) scale(0.100000,-0.100000)"
fill="#000000" stroke="none">
<path d="M1480 4744 c-49 -21 -70 -42 -96 -99 -21 -44 -24 -65 -24 -167 l0
-118 -183 0 c-209 0 -291 -15 -400 -72 -82 -43 -173 -136 -219 -224 -73 -138
-69 -38 -66 -1676 l3 -1473 26 -72 c71 -193 214 -324 407 -374 73 -18 126 -19
1726 -19 1829 0 1724 -3 1865 66 142 70 254 213 296 379 23 89 22 2937 0 3034
-24 101 -72 188 -145 261 -137 138 -237 170 -522 170 l-188 0 0 108 c0 59 -5
124 -11 146 -14 49 -80 122 -126 137 -56 18 -164 8 -205 -20 -73 -50 -98 -118
-98 -268 l0 -103 -859 0 -859 0 -3 128 c-4 123 -5 131 -34 177 -41 67 -97 95
-184 95 -36 -1 -82 -8 -101 -16z m-120 -710 c0 -102 16 -150 66 -201 116 -116
320 -62 364 96 5 20 10 69 10 109 l0 72 859 0 858 0 5 -92 c4 -68 11 -104 26
-135 77 -150 306 -150 384 0 16 31 23 65 26 135 l4 92 197 0 c185 0 199 -1
247 -24 66 -31 120 -86 153 -155 24 -52 26 -68 29 -228 l4 -173 -1931 0 -1931
0 0 149 c0 200 17 260 98 341 82 82 107 88 340 89 l192 1 0 -76z m3228 -1916
l-3 -1173 -27 -57 c-35 -75 -104 -141 -174 -167 -55 -21 -58 -21 -1737 -19
l-1682 3 -49 24 c-64 31 -118 88 -153 159 l-28 57 -3 1173 -2 1172 1930 0
1930 0 -2 -1172z"/>
<path d="M2985 3021 c-224 -56 -408 -243 -461 -468 -22 -93 -15 -265 14 -348
l21 -60 -419 -420 c-432 -433 -448 -451 -465 -546 -10 -54 10 -113 50 -148 44
-38 103 -54 182 -49 51 3 71 10 109 37 l47 33 82 -82 c65 -65 88 -81 112 -82
55 -2 150 85 160 146 6 37 4 40 -81 123 l-87 86 47 49 c27 26 51 48 54 48 4 0
38 -32 76 -71 79 -80 113 -102 148 -93 13 3 56 39 95 79 99 102 98 110 -20
230 l-91 93 44 39 c23 22 88 80 142 130 l100 90 61 -28 c67 -30 191 -59 255
-59 22 0 74 7 115 15 292 61 503 305 522 605 18 300 -194 586 -487 654 -86 21
-237 19 -325 -3z m367 -301 c114 -32 171 -165 115 -271 -92 -173 -357 -109
-357 86 0 84 48 152 126 180 48 17 68 18 116 5z"/>
</g>
</svg>
